<svg width="682" height="682" viewBox="0 0 682 682" fill="none" xmlns="http://www.w3.org/2000/svg">
<path d="M507 353.708C507 361.102 501.417 367.387 494.021 368.317L488.439 368.992C488.408 369 488.377 369 488.346 369C488.241 369 488.137 368.979 488.04 368.937C487.944 368.896 487.857 368.836 487.785 368.76L470.143 350.442C470.06 350.357 469.998 350.255 469.962 350.142C469.925 350.03 469.915 349.911 469.931 349.794C469.948 349.677 469.991 349.566 470.058 349.468C470.124 349.371 470.212 349.29 470.315 349.231L484.889 340.952C486.789 339.865 488.908 339.213 491.092 339.044C493.276 338.875 495.471 339.193 497.517 339.974C499.551 340.746 501.388 341.96 502.894 343.528C504.399 345.095 505.536 346.977 506.221 349.036C506.736 350.519 507 352.095 507 353.708ZM292.067 349.79C292.083 349.907 292.072 350.027 292.036 350.139C291.999 350.252 291.938 350.355 291.857 350.442L274.215 368.76C274.143 368.836 274.056 368.896 273.96 368.937C273.863 368.979 273.759 369 273.655 369C273.616 369 273.585 369 273.553 368.992L267.979 368.317C260.575 367.387 255 361.102 255 353.708C255 352.095 255.264 350.519 255.778 349.03C256.464 346.971 257.601 345.091 259.106 343.525C260.612 341.959 262.448 340.746 264.482 339.975C266.528 339.194 268.722 338.876 270.907 339.045C273.091 339.214 275.21 339.866 277.11 340.953L291.676 349.232C291.779 349.29 291.868 349.37 291.936 349.466C292.004 349.563 292.048 349.674 292.067 349.79Z" fill="#000824"/>
<path d="M29 463H180V488H29V463Z" fill="#12225C"/>
<path d="M549 463H653V488H549V463Z" fill="#D8D0D8"/>
<path d="M29 212H180V237H29V212Z" fill="#12225C"/>
<path d="M42 237H167V463H42V237Z" fill="#AFA39E"/>
<path d="M61 283H147V417H61V283Z" fill="#F2EDF4"/>
<path d="M539.656 181.48L530.271 189.18H525.494L526.505 187.55H424.224H366.228H226.519L232.701 175.411H372.41H430.406H526.505L525.494 173.781H530.271L539.656 181.48ZM384.211 191.315L370.162 218.908H389.213L403.262 191.315H384.211ZM224.608 191.315L210.559 218.908H229.104L237.14 203.061H261.249L267.263 191.315H224.608ZM288.843 191.034C283.054 191.034 277.772 194.294 275.13 199.408L265.071 219.189H277.097L287.55 198.677H305.646L304.297 201.318H289.405L285.527 208.961H300.42L295.193 219.189H307.22L321.55 190.978H288.843V191.034ZM317.729 211.827L313.739 219.639H350.773C357.517 219.639 362.968 214.188 362.968 207.444C362.968 204.128 360.271 201.431 356.955 201.431H335.431L337.005 198.34H365.553L369.487 190.641H339.421C333.464 190.641 326.72 193.788 323.068 201.431C321.382 204.803 323.798 208.793 327.563 208.793H350.267L348.694 211.884H317.729V211.827ZM437.543 208.793L441.309 201.431H423.494C417.705 201.431 412.423 204.69 409.781 209.861L408.657 212.052C406.915 215.48 409.388 219.527 413.266 219.527H447.828L459.124 197.385C460.641 194.35 458.449 190.753 455.077 190.753H421.134L417.087 198.733H446.086L444.681 201.431L439.567 211.546H421.134L422.426 208.849H437.543V208.793ZM506.161 190.416C509.421 190.416 511.557 193.844 510.039 196.766L494.753 226.832C492.337 231.609 487.391 234.644 481.996 234.644H320.258L322.225 237.004H318.347L310.704 230.71L318.347 224.416H322.225L320.258 226.776H482.277L486.436 218.627H463.676C460.304 218.627 458.112 215.031 459.629 212.052L467.216 197.216C469.352 193.057 473.623 190.416 478.343 190.416H506.161ZM497.057 197.778H479.13L472.499 210.816H490.426L497.057 197.778Z" fill="black"/>
<path d="M371.451 174.445L365.27 186.584H423.266L429.448 174.445H371.451Z" fill="#38AC49"/>
<path d="M231.744 174.445L225.562 186.584H365.271L371.453 174.445H231.744Z" fill="#E98824"/>
<path d="M529.312 172.82H524.535L525.546 174.45H429.447L423.266 186.589H525.546L524.535 188.275H529.312L538.753 180.519L529.312 172.82Z" fill="#E98824"/>
<path d="M392.416 184.613C397.136 182.197 399.384 184.445 399.89 185.119L398.204 186.243C396.406 184.613 393.371 185.512 392.528 185.85L392.416 184.613ZM392.022 181.185L392.191 182.759C399.272 179.162 402.082 182.815 402.475 183.377L404.555 182.028C402.756 178.319 395.394 178.937 392.022 181.185ZM391.629 177.701L391.797 179.218C400.677 175.284 405.173 177.195 407.14 180.286L409.275 178.881C405.454 172.755 396.237 174.778 391.629 177.701Z" fill="white"/>
<path d="M391.069 172.813C401.466 166.8 412.087 168.205 415.403 174.724L412.593 176.578C409.558 170.959 399.836 169.891 391.294 175.117L391.069 172.813ZM390.395 166.687L390.732 169.891C402.028 163.821 414.223 164.552 418.718 172.532L422.765 169.835C419.28 160.281 400.004 160.112 390.395 166.687Z" fill="#E98824"/>
<path d="M260.292 202.149H236.183L228.147 217.997H209.602L223.651 190.404H266.306L260.292 202.149ZM287.942 190.067C282.154 190.067 276.871 193.326 274.23 198.44L264.17 218.222H276.197L286.649 197.71H304.745L303.396 200.351H288.448L284.57 207.994H299.463L294.292 218.222H306.319L320.649 190.011H287.942V190.067ZM364.653 197.316L368.586 189.617H338.52C332.563 189.617 325.82 192.764 322.111 200.407C320.425 203.779 322.841 207.769 326.606 207.769H349.31L347.737 210.86H316.772L312.782 218.672H349.816C356.56 218.672 362.011 213.22 362.011 206.477C362.011 203.161 359.314 200.407 355.998 200.407H334.474L336.048 197.316H364.653Z" fill="#E98824"/>
<path d="M388.311 217.952H369.26L383.31 190.359H402.361L388.311 217.952ZM454.119 189.797H420.176L416.129 197.777H445.184L443.779 200.474L438.665 210.59H420.232L421.524 207.892H436.698L440.463 200.53H422.648C416.86 200.53 411.577 203.79 408.936 208.96L407.812 211.152C406.07 214.58 408.543 218.626 412.42 218.626H446.982L458.278 196.484C459.739 193.393 457.491 189.797 454.119 189.797ZM505.26 189.516C508.519 189.516 510.655 192.944 509.138 195.866L493.852 225.932C491.435 230.709 486.49 233.744 481.151 233.744H319.3L321.323 236.104H317.389L309.746 229.81L317.389 223.572H321.323L319.3 225.932H481.319L485.478 217.783H462.718C459.346 217.783 457.154 214.187 458.672 211.208L466.258 196.372C468.394 192.213 472.665 189.572 477.386 189.572H505.26M496.1 196.878H478.172L471.541 209.916H489.468L496.1 196.878Z" fill="#38AC49"/>
<path d="M443.219 181.481H432.092C431.698 181.481 431.417 181.088 431.642 180.694L431.923 180.132C432.092 179.795 432.429 179.627 432.766 179.627H443.893C444.287 179.627 444.568 180.02 444.343 180.413L444.062 180.975C443.95 181.256 443.612 181.481 443.219 181.481ZM468.34 181.481C468.733 181.481 469.07 181.256 469.183 180.919L469.464 180.357C469.632 180.02 469.407 179.57 469.014 179.57H457.887C457.493 179.57 457.156 179.795 456.988 180.076L456.707 180.638C456.538 180.975 456.763 181.425 457.156 181.425H468.34M493.46 181.481C493.854 181.481 494.191 181.256 494.359 180.919L494.64 180.357C494.809 180.02 494.584 179.57 494.191 179.57H483.064C482.67 179.57 482.333 179.795 482.164 180.076L481.883 180.638C481.715 180.975 481.94 181.425 482.333 181.425H493.46M518.581 181.481C518.974 181.481 519.312 181.256 519.48 180.919L519.761 180.357C519.93 180.02 519.705 179.57 519.312 179.57H508.184C507.791 179.57 507.454 179.795 507.341 180.076L507.06 180.638C506.892 180.975 507.117 181.425 507.51 181.425H518.581M356.73 230.486C357.011 230.486 357.236 230.317 357.348 230.093L357.517 229.699C357.629 229.474 357.461 229.137 357.18 229.137H349.312C349.031 229.137 348.806 229.306 348.694 229.531L348.469 229.924C348.356 230.149 348.525 230.486 348.806 230.486H356.73ZM394.832 230.486C395.113 230.486 395.338 230.317 395.451 230.093L395.619 229.699C395.732 229.474 395.563 229.137 395.282 229.137H387.414C387.133 229.137 386.908 229.306 386.796 229.531L386.571 229.924C386.459 230.149 386.627 230.486 386.908 230.486H394.832ZM432.991 230.486C433.272 230.486 433.497 230.317 433.609 230.093L433.778 229.699C433.89 229.474 433.722 229.137 433.441 229.137H425.573C425.292 229.137 425.067 229.306 424.955 229.531L424.73 229.924C424.617 230.149 424.786 230.486 425.067 230.486H432.991ZM471.093 230.486C471.374 230.486 471.599 230.317 471.712 230.093L471.88 229.699C471.993 229.474 471.824 229.137 471.543 229.137H463.675C463.394 229.137 463.169 229.306 463.057 229.531L462.832 229.924C462.72 230.149 462.888 230.486 463.169 230.486H471.093Z" fill="#EDC91A"/>
<path d="M202.465 232.838L205.668 226.544H211.344L211.063 227.049H206.174L204.994 229.297H209.377L209.096 229.803H204.713L203.42 232.276H208.422L208.141 232.782H202.465V232.838ZM213.48 230.253C211.962 230.421 211.007 230.871 210.614 231.601C210.501 231.826 210.445 231.995 210.501 232.163C210.501 232.332 210.614 232.444 210.726 232.557C210.838 232.669 211.063 232.725 211.288 232.782C211.513 232.838 211.738 232.838 212.019 232.838C212.468 232.838 212.918 232.782 213.367 232.669C213.817 232.557 214.266 232.332 214.716 232.107C214.66 232.163 214.66 232.276 214.604 232.332C214.604 232.388 214.604 232.444 214.604 232.557C214.604 232.613 214.66 232.669 214.716 232.725C214.772 232.782 214.828 232.782 214.941 232.782C215.053 232.782 215.166 232.782 215.222 232.782C215.334 232.782 215.447 232.782 215.559 232.725C215.671 232.725 215.784 232.669 215.84 232.669L216.065 232.276C215.728 232.332 215.503 232.388 215.447 232.332C215.39 232.276 215.39 232.163 215.503 231.939L216.739 229.466C216.852 229.185 216.908 228.96 216.908 228.792C216.908 228.623 216.795 228.454 216.627 228.342C216.458 228.23 216.29 228.173 216.009 228.117C215.784 228.061 215.503 228.061 215.166 228.061C214.828 228.061 214.491 228.061 214.154 228.117C213.817 228.173 213.536 228.286 213.255 228.398C212.974 228.511 212.693 228.679 212.468 228.848C212.243 229.016 212.019 229.241 211.85 229.522H212.581C212.693 229.297 212.862 229.185 213.03 229.016C213.199 228.904 213.367 228.792 213.592 228.679C213.761 228.623 213.985 228.567 214.21 228.511C214.435 228.454 214.66 228.454 214.941 228.454C215.503 228.454 215.84 228.567 216.009 228.735C216.177 228.904 216.177 229.129 216.009 229.41C215.952 229.466 215.896 229.578 215.84 229.691C215.784 229.803 215.671 229.859 215.503 229.916C215.39 229.972 215.166 229.972 214.997 230.028C214.772 230.028 214.604 230.084 214.491 230.084L213.48 230.253ZM215.222 231.152C215.109 231.377 214.941 231.601 214.716 231.714C214.491 231.882 214.266 231.995 213.985 232.107C213.704 232.22 213.424 232.276 213.143 232.332C212.862 232.388 212.581 232.388 212.243 232.388C212.075 232.388 211.906 232.388 211.794 232.332C211.625 232.276 211.513 232.276 211.457 232.163C211.344 232.107 211.288 231.995 211.288 231.882C211.288 231.77 211.288 231.658 211.344 231.545C211.513 231.264 211.794 230.983 212.131 230.871C212.524 230.702 212.974 230.646 213.536 230.59C213.873 230.59 214.154 230.534 214.491 230.534C214.828 230.534 215.166 230.421 215.503 230.365L215.222 231.152ZM219.043 231.377C218.931 231.601 218.931 231.77 218.931 231.995C218.931 232.163 219.043 232.332 219.156 232.501C219.268 232.669 219.493 232.725 219.718 232.838C219.943 232.894 220.28 232.95 220.617 232.95C220.954 232.95 221.347 232.95 221.685 232.894C222.022 232.838 222.303 232.782 222.584 232.669C222.865 232.557 223.09 232.444 223.314 232.276C223.539 232.107 223.708 231.939 223.82 231.714C223.989 231.433 223.989 231.208 223.876 231.039C223.764 230.871 223.595 230.758 223.314 230.646C223.09 230.534 222.809 230.477 222.471 230.421C222.134 230.365 221.853 230.309 221.628 230.253C221.347 230.196 221.179 230.084 221.01 229.972C220.898 229.859 220.842 229.691 220.954 229.522C221.066 229.297 221.291 229.129 221.628 228.96C221.966 228.792 222.303 228.735 222.752 228.735C223.202 228.735 223.539 228.792 223.764 228.96C223.989 229.129 224.045 229.354 223.933 229.691H224.663C224.832 229.185 224.776 228.792 224.495 228.567C224.214 228.342 223.708 228.23 223.033 228.23C222.359 228.23 221.741 228.342 221.235 228.567C220.729 228.792 220.392 229.129 220.167 229.522C219.999 229.803 219.999 230.028 220.111 230.196C220.223 230.365 220.392 230.477 220.673 230.59C220.898 230.702 221.179 230.758 221.516 230.815C221.853 230.871 222.134 230.927 222.415 230.983C222.696 231.039 222.865 231.152 223.033 231.208C223.146 231.32 223.202 231.489 223.09 231.714C223.033 231.826 222.977 231.939 222.809 232.051C222.696 232.163 222.584 232.22 222.415 232.332C222.247 232.388 222.078 232.501 221.853 232.501C221.628 232.557 221.404 232.557 221.123 232.557C220.561 232.557 220.223 232.501 219.999 232.332C219.774 232.163 219.718 231.882 219.83 231.489H219.043V231.377ZM225.281 234.524C225.394 234.524 225.45 234.58 225.562 234.58C225.675 234.58 225.787 234.58 225.9 234.58C226.124 234.58 226.349 234.524 226.574 234.468C226.799 234.355 227.023 234.243 227.248 234.074C227.473 233.906 227.698 233.737 227.979 233.512C228.204 233.287 228.485 233.006 228.766 232.725L233.318 228.286H232.531L228.597 232.163V228.286H227.81L227.866 232.838C227.754 232.95 227.642 233.063 227.473 233.175C227.361 233.344 227.192 233.456 227.08 233.568C226.911 233.681 226.742 233.793 226.574 233.906C226.405 234.018 226.237 234.074 226.012 234.074C225.9 234.074 225.787 234.074 225.731 234.074C225.619 234.074 225.562 234.074 225.45 234.018L225.281 234.524ZM241.185 232.388C241.073 232.388 240.961 232.444 240.848 232.444C240.736 232.444 240.623 232.444 240.567 232.444C240.399 232.444 240.286 232.444 240.23 232.388C240.174 232.388 240.118 232.332 240.118 232.276C240.118 232.22 240.118 232.163 240.174 232.051C240.23 231.995 240.23 231.882 240.286 231.77L241.86 228.679H243.04L243.265 228.23H242.141L242.759 226.993H242.028L241.41 228.23H240.567L240.342 228.679H241.185L239.5 231.995C239.331 232.332 239.275 232.557 239.443 232.725C239.556 232.838 239.78 232.894 240.174 232.894C240.342 232.894 240.511 232.894 240.68 232.838C240.848 232.782 240.961 232.782 241.073 232.782L241.185 232.388ZM247.086 232.95C247.536 232.95 247.929 232.894 248.323 232.782C248.716 232.669 249.109 232.501 249.447 232.276C249.784 232.051 250.121 231.826 250.402 231.545C250.683 231.264 250.908 230.927 251.076 230.59C251.245 230.253 251.357 229.972 251.357 229.635C251.414 229.354 251.357 229.073 251.189 228.904C251.076 228.679 250.852 228.511 250.571 228.398C250.29 228.286 249.896 228.23 249.39 228.23C248.885 228.23 248.491 228.286 248.042 228.398C247.648 228.511 247.255 228.679 246.861 228.904C246.524 229.129 246.187 229.354 245.962 229.635C245.681 229.916 245.457 230.253 245.288 230.59C245.063 230.983 245.007 231.32 245.007 231.601C245.007 231.882 245.063 232.163 245.232 232.332C245.4 232.557 245.625 232.669 245.906 232.782C246.356 232.894 246.693 232.95 247.086 232.95ZM250.402 230.534C250.29 230.758 250.121 231.039 249.896 231.264C249.671 231.489 249.447 231.714 249.222 231.882C248.941 232.051 248.66 232.22 248.379 232.332C248.042 232.444 247.704 232.501 247.311 232.501C246.974 232.501 246.693 232.444 246.468 232.388C246.243 232.276 246.131 232.163 246.019 231.995C245.906 231.826 245.906 231.601 245.906 231.377C245.962 231.152 246.019 230.871 246.187 230.59C246.299 230.365 246.468 230.084 246.693 229.859C246.861 229.635 247.142 229.41 247.367 229.241C247.648 229.073 247.929 228.904 248.21 228.792C248.547 228.679 248.885 228.623 249.222 228.623C249.615 228.623 249.896 228.679 250.121 228.792C250.346 228.904 250.458 229.016 250.571 229.185C250.627 229.354 250.683 229.578 250.627 229.803C250.627 230.028 250.514 230.309 250.402 230.534ZM267.205 228.342C267.318 228.005 267.318 227.724 267.261 227.499C267.205 227.274 267.093 227.049 266.868 226.881C266.643 226.712 266.418 226.6 266.081 226.487C265.744 226.375 265.351 226.375 264.901 226.375C264.339 226.375 263.777 226.431 263.215 226.544C262.653 226.656 262.147 226.881 261.642 227.106C261.136 227.387 260.686 227.724 260.293 228.117C259.899 228.511 259.506 229.016 259.225 229.635C259 230.084 258.832 230.477 258.776 230.871C258.719 231.264 258.719 231.601 258.888 231.939C259.057 232.22 259.281 232.501 259.675 232.669C260.068 232.838 260.574 232.95 261.248 232.95C261.81 232.95 262.372 232.894 262.822 232.782C263.328 232.669 263.777 232.501 264.171 232.276C264.564 232.051 264.957 231.826 265.238 231.545C265.575 231.264 265.856 230.983 266.081 230.702H265.238C265.014 230.927 264.789 231.208 264.508 231.377C264.227 231.601 263.946 231.77 263.665 231.939C263.384 232.107 263.047 232.22 262.709 232.276C262.372 232.388 261.979 232.388 261.642 232.388C261.08 232.388 260.63 232.332 260.293 232.163C260.012 231.995 259.787 231.77 259.675 231.545C259.562 231.264 259.562 230.983 259.618 230.646C259.675 230.309 259.843 229.972 260.012 229.635C260.18 229.241 260.461 228.904 260.742 228.567C261.023 228.23 261.361 227.949 261.754 227.668C262.147 227.387 262.541 227.218 262.99 227.049C263.44 226.881 263.946 226.825 264.452 226.825C265.182 226.825 265.688 226.937 266.025 227.162C266.362 227.387 266.475 227.78 266.362 228.286H267.205V228.342ZM269.566 230.59C269.678 230.365 269.847 230.084 270.015 229.859C270.184 229.635 270.409 229.41 270.633 229.241C270.858 229.073 271.139 228.96 271.476 228.848C271.814 228.735 272.151 228.679 272.544 228.735L272.825 228.173C272.319 228.173 271.87 228.23 271.476 228.398C271.083 228.567 270.69 228.792 270.352 229.129L270.802 228.286H270.071L268.217 232.782H268.442L269.566 230.59ZM279.007 230.758C278.894 230.983 278.726 231.264 278.501 231.433C278.333 231.658 278.108 231.826 277.827 231.995C277.602 232.163 277.321 232.276 277.04 232.332C276.759 232.388 276.478 232.444 276.197 232.444C275.635 232.444 275.298 232.332 275.129 232.107C275.017 231.882 275.017 231.601 275.242 231.208L276.759 228.23H276.028L274.511 231.208C274.399 231.433 274.286 231.658 274.286 231.882C274.286 232.107 274.286 232.276 274.399 232.388C274.511 232.557 274.68 232.669 274.904 232.725C275.129 232.838 275.466 232.838 275.86 232.838C276.141 232.838 276.366 232.838 276.59 232.782C276.815 232.725 277.04 232.669 277.209 232.613C277.377 232.557 277.602 232.444 277.771 232.388C277.939 232.276 278.108 232.22 278.22 232.163L277.883 232.782H278.613L280.918 228.286H280.243L279.007 230.758ZM286.2 227.33L286.594 226.544H285.807L285.413 227.33H286.2ZM283.334 232.838L285.638 228.342H284.908L282.604 232.838H283.334ZM286.762 231.377C286.65 231.601 286.65 231.77 286.65 231.995C286.65 232.163 286.706 232.332 286.875 232.501C286.987 232.669 287.212 232.725 287.437 232.838C287.661 232.894 287.999 232.95 288.336 232.95C288.729 232.95 289.066 232.95 289.404 232.894C289.741 232.838 290.022 232.782 290.303 232.669C290.584 232.557 290.809 232.444 291.033 232.276C291.258 232.107 291.427 231.939 291.539 231.714C291.708 231.433 291.708 231.208 291.595 231.039C291.483 230.871 291.314 230.758 291.09 230.646C290.865 230.534 290.584 230.477 290.247 230.421C289.909 230.365 289.628 230.309 289.404 230.253C289.123 230.196 288.954 230.084 288.785 229.972C288.673 229.859 288.617 229.691 288.729 229.522C288.842 229.297 289.066 229.129 289.404 228.96C289.741 228.792 290.078 228.735 290.528 228.735C290.977 228.735 291.314 228.792 291.539 228.96C291.764 229.129 291.82 229.354 291.708 229.691H292.438C292.607 229.185 292.551 228.792 292.27 228.567C291.989 228.342 291.483 228.23 290.809 228.23C290.134 228.23 289.516 228.342 289.01 228.567C288.504 228.792 288.167 229.129 287.942 229.522C287.774 229.803 287.774 230.028 287.886 230.196C287.999 230.365 288.167 230.477 288.448 230.59C288.673 230.702 288.954 230.758 289.291 230.815C289.628 230.871 289.909 230.927 290.19 230.983C290.471 231.039 290.64 231.152 290.809 231.208C290.921 231.32 290.977 231.489 290.865 231.714C290.809 231.826 290.696 231.939 290.584 232.051C290.471 232.163 290.359 232.22 290.19 232.332C290.022 232.388 289.853 232.501 289.628 232.501C289.404 232.557 289.179 232.557 288.898 232.557C288.336 232.557 287.999 232.501 287.774 232.332C287.549 232.163 287.493 231.882 287.605 231.489H286.762V231.377ZM300.25 230.702C300.699 229.915 300.756 229.297 300.475 228.848C300.194 228.398 299.632 228.23 298.789 228.23C298.339 228.23 297.89 228.286 297.496 228.398C297.103 228.511 296.709 228.679 296.372 228.904C296.035 229.129 295.698 229.354 295.417 229.691C295.136 229.972 294.911 230.309 294.742 230.646C294.574 230.983 294.461 231.264 294.405 231.601C294.349 231.882 294.405 232.163 294.518 232.332C294.63 232.557 294.855 232.725 295.136 232.838C295.417 232.95 295.81 233.006 296.316 233.006C296.709 233.006 297.047 232.95 297.384 232.894C297.721 232.838 298.002 232.725 298.283 232.557C298.564 232.444 298.845 232.276 299.07 232.107C299.294 231.939 299.519 231.714 299.744 231.489H298.957C298.676 231.826 298.339 232.051 297.89 232.276C297.44 232.444 296.99 232.557 296.541 232.557C296.204 232.557 295.923 232.501 295.698 232.388C295.473 232.276 295.361 232.163 295.248 231.995C295.136 231.826 295.136 231.658 295.136 231.433C295.136 231.208 295.248 230.983 295.361 230.758H300.25V230.702ZM295.698 230.253C295.866 230.028 296.035 229.859 296.204 229.635C296.428 229.466 296.653 229.297 296.878 229.129C297.103 228.96 297.384 228.848 297.665 228.792C297.946 228.679 298.227 228.679 298.564 228.679C298.901 228.679 299.126 228.735 299.351 228.792C299.575 228.848 299.688 229.016 299.8 229.129C299.913 229.297 299.913 229.466 299.913 229.635C299.913 229.803 299.8 230.028 299.688 230.253H295.698Z" fill="white"/>
<path d="M185 323H219V488H185V323Z" fill="#400200"/>
<path d="M496 459.778V482.533C495.997 484.247 495.316 485.891 494.106 487.103C492.896 488.315 491.255 488.997 489.543 489H455.457C453.745 488.997 452.104 488.315 450.894 487.103C449.684 485.891 449.003 484.247 449 482.533V459.778C449 459.342 449.35 459 449.777 459H495.223C495.325 459 495.426 459.02 495.521 459.059C495.615 459.098 495.701 459.155 495.773 459.228C495.845 459.3 495.902 459.386 495.941 459.48C495.98 459.575 496 459.676 496 459.778Z" fill="#2F2414"/>
<path d="M513 400.802V447.888C513 454.568 507.53 460 500.81 460H261.19C254.471 460 249 454.569 249 447.888V400.802C249 394.417 251.645 388.257 256.257 383.912L281.003 360.218C281.141 360.085 281.323 360.008 281.515 360.001C281.707 359.994 281.894 360.057 282.042 360.179C288.158 365.163 295.82 367.888 303.728 367.891H458.264C466.169 367.891 473.872 365.152 479.951 360.179C480.262 359.923 480.707 359.946 480.989 360.218L505.743 383.912C510.355 388.257 513 394.417 513 400.802Z" fill="#12225C"/>
<path d="M458.09 369H303.91C295.659 368.998 287.663 366.154 281.283 360.952C281.198 360.882 281.129 360.796 281.081 360.698C281.032 360.6 281.005 360.493 281.001 360.384C280.996 360.275 281.015 360.167 281.056 360.065C281.097 359.964 281.158 359.873 281.237 359.797L284.147 357.008C286.561 354.703 288.737 352.164 290.643 349.43C292.156 347.256 293.489 344.963 294.627 342.574L306.244 318.569C311.137 310.18 320.382 305 330.397 305H431.603C441.619 305 450.864 310.18 455.728 318.516L467.371 342.569C468.509 344.959 469.842 347.253 471.355 349.427C473.261 352.163 475.437 354.701 477.851 357.006L480.761 359.796C480.84 359.871 480.903 359.963 480.944 360.064C480.985 360.165 481.004 360.274 480.999 360.383C480.995 360.492 480.968 360.599 480.919 360.697C480.87 360.795 480.801 360.881 480.716 360.951C474.336 366.154 466.341 368.998 458.09 369ZM282.956 360.301C288.948 364.934 296.32 367.449 303.91 367.452H458.09C465.679 367.45 473.052 364.934 479.043 360.301L476.771 358.123C474.282 355.747 472.04 353.129 470.075 350.31C468.514 348.068 467.139 345.703 465.966 343.239L454.352 319.242C449.793 311.433 441.065 306.549 431.602 306.549H330.397C320.935 306.549 312.206 311.433 307.618 319.295L296.032 343.243C294.858 345.707 293.484 348.071 291.923 350.312C289.959 353.131 287.716 355.748 285.228 358.124L282.956 360.301Z" fill="#400200"/>
<path d="M469.963 359.476C469.926 359.598 469.859 359.71 469.767 359.8C469.676 359.89 469.564 359.956 469.441 359.992C466.903 360.742 464.271 361.123 461.625 361.125H300.417C297.768 361.125 295.142 360.741 292.601 359.992C292.478 359.956 292.366 359.89 292.275 359.8C292.184 359.71 292.116 359.598 292.079 359.476C292.039 359.355 292.029 359.226 292.051 359.101C292.073 358.975 292.125 358.857 292.203 358.757C295.042 355.153 297.465 351.24 299.427 347.091L311.372 322.197C314.816 316.5 321.214 313 328.111 313H433.93C435.131 313 436.307 313.101 437.46 313.312C442.953 314.28 447.816 317.476 450.629 322.133L462.629 347.129C464.04 350.111 465.693 352.972 467.57 355.685C468.289 356.733 469.043 357.757 469.829 358.756C469.909 358.855 469.963 358.973 469.987 359.099C470.01 359.224 470.002 359.354 469.963 359.476ZM319.135 421.015V421.225C319.135 427.172 314.312 432 308.382 432H280.813C275.958 432 272 428.039 272 423.163V410.029C272 406.755 273.542 403.802 276.231 401.934C278.911 400.066 282.207 399.661 285.27 400.809L312.161 410.919C316.329 412.49 319.135 416.546 319.135 421.015Z" fill="#F2EDF4"/>
<path d="M415.978 407.992L410.275 431.392C410.234 431.566 410.137 431.72 410 431.831C409.863 431.941 409.693 432.001 409.519 432H352.482C352.307 432.001 352.138 431.941 352.001 431.831C351.863 431.72 351.766 431.566 351.725 431.392L346.023 407.992C345.995 407.874 345.992 407.75 346.017 407.631C346.041 407.512 346.091 407.4 346.163 407.304C346.237 407.209 346.331 407.132 346.437 407.079C346.544 407.027 346.661 407 346.779 407H415.22C415.338 407 415.455 407.028 415.561 407.081C415.668 407.134 415.761 407.212 415.834 407.307C415.907 407.403 415.958 407.514 415.982 407.632C416.007 407.751 416.006 407.874 415.978 407.992Z" fill="#2B4CC4"/>
<path d="M313 459.778V482.533C312.997 484.247 312.316 485.891 311.106 487.103C309.896 488.315 308.255 488.997 306.543 489H272.457C270.745 488.997 269.104 488.315 267.894 487.103C266.684 485.891 266.003 484.247 266 482.533V459.778C266 459.342 266.35 459 266.777 459H312.223C312.325 459 312.426 459.02 312.521 459.059C312.615 459.098 312.701 459.155 312.773 459.228C312.845 459.3 312.902 459.386 312.941 459.48C312.98 459.575 313 459.676 313 459.778Z" fill="#2F2414"/>
<path d="M490 409.912V423.117C490 428.018 486.053 432 481.205 432H453.714C447.809 432 443 427.146 443 421.168V420.957C443 416.463 445.797 412.387 449.955 410.809L476.769 400.645C479.815 399.49 483.102 399.899 485.783 401.776C488.462 403.651 490 406.621 490 409.912Z" fill="#F2EDF4"/>
<path d="M558 380.496C558 383.397 556.787 386.025 554.832 387.924C552.876 389.823 550.17 391 547.189 391H219V370H547.19C548.003 370 548.801 370.091 549.569 370.258C554.393 371.306 558 375.498 558 380.496Z" fill="#F20A0A"/>
<path opacity="0.51" d="M390.143 313L341.735 361H309L357.407 313H390.143ZM438 313.311L389.907 361H371.397L419.797 313H434.439C435.651 313 436.837 313.101 438 313.311Z" fill="#E6E7E8"/>
<path d="M549 370.259L527.684 391H515.625L537.207 370H546.628C547.439 370 548.235 370.092 549 370.259ZM515.313 370L493.731 391H481.672L503.254 370H515.313ZM481.359 370L459.777 391H447.718L469.3 370H481.359ZM447.406 370L425.825 391H413.765L435.347 370H447.406ZM413.453 370L391.871 391H379.812L401.393 370H413.453ZM379.5 370L357.918 391H345.859L367.441 370H379.5ZM345.546 370L323.965 391H311.906L333.488 370H345.546ZM311.594 370L290.012 391H277.952L299.534 370H311.594ZM277.641 370L256.059 391H244L265.581 370H277.641Z" fill="#D8D0D8"/>
<path d="M608 354H630V463H608V354Z" fill="#2E3030"/>
<path d="M557 267V275.171H614.655V354H624V275.171C624 273.004 623.139 270.926 621.605 269.393C620.072 267.861 617.992 267 615.824 267H557Z" fill="#725A64"/>
<path d="M566.999 277H541V274.528C541 272.001 542.024 269.577 543.847 267.791C545.67 266.004 548.142 265 550.72 265H557.28C559.858 265 562.33 266.004 564.153 267.791C565.976 269.578 567 272.001 567 274.528L566.999 277Z" fill="#EDA53E"/>
<path d="M369.357 132.094L375.113 143.533L363.051 154.898L369.357 132.094Z" fill="#008C44"/>
<path d="M365.358 132.094L371.078 143.533L359.016 154.898L365.358 132.094Z" fill="#F47920"/>
<path d="M261.311 155.157L243.016 140.199L238.91 155.084H234.363L240.706 132.169L259.001 147.091L263.144 132.133H267.69L261.311 155.157ZM355.645 150.538H332.841L336.69 136.606H359.495L360.081 134.443C360.265 133.783 360.191 133.233 359.898 132.793C359.568 132.353 359.091 132.133 358.431 132.133H335.627C335.004 132.133 334.38 132.353 333.83 132.793C333.281 133.233 332.914 133.783 332.731 134.443L327.671 152.738C327.488 153.397 327.561 153.911 327.854 154.351C328.184 154.791 328.661 155.011 329.284 155.011H352.089C352.712 155.011 353.335 154.791 353.885 154.351C354.435 153.911 354.838 153.361 354.985 152.738L355.645 150.538ZM302.117 132.133L300.87 136.569H312.383L307.286 154.974H311.833L316.929 136.569H328.148H328.184L329.394 132.133H302.117ZM296.141 132.133H273.336C273.19 132.133 273.08 132.133 272.97 132.169C272.456 132.243 272.016 132.463 271.54 132.829C270.99 133.269 270.623 133.819 270.44 134.479L265.38 152.774C265.197 153.434 265.27 153.947 265.564 154.387C265.894 154.827 266.37 155.047 266.994 155.047H269.267H287.562H289.798C290.421 155.047 291.045 154.827 291.594 154.387C292.144 153.947 292.548 153.397 292.694 152.774L293.318 150.574H288.808H270.55L271.833 145.882H290.091L291.338 141.409H273.08L274.399 136.642H292.658H297.167L297.791 134.479C297.974 133.819 297.901 133.269 297.607 132.829C297.277 132.353 296.801 132.133 296.141 132.133Z" fill="#263238"/>
<path d="M232.527 161.83L233.701 157.688L235.717 160.657L236.487 157.944H237.074L235.9 162.05L233.884 159.117L233.114 161.83H232.527ZM240.52 161.83H241.18L240.483 157.688L237.367 161.83H237.99L238.687 160.877H240.337L240.52 161.83ZM239.09 160.327L240.08 159.007L240.263 160.327H239.09ZM245.249 158.494L245.396 157.944H243.013L242.866 158.494H243.746L242.83 161.83H243.416L244.333 158.494H245.249ZM246.826 157.944L245.726 161.83H246.349L247.449 157.944H246.826ZM248.549 159.851C248.366 160.474 248.439 160.987 248.806 161.354C249.099 161.72 249.502 161.867 250.016 161.867C250.602 161.867 251.116 161.684 251.629 161.28C252.142 160.877 252.472 160.437 252.619 159.851C252.765 159.301 252.729 158.824 252.435 158.421C252.142 158.017 251.739 157.834 251.189 157.834C250.639 157.834 250.089 158.017 249.576 158.421C249.026 158.824 248.696 159.301 248.549 159.851ZM249.136 159.851C249.246 159.447 249.502 159.117 249.832 158.824C250.199 158.531 250.566 158.384 250.969 158.384C251.372 158.384 251.666 158.531 251.886 158.824C252.069 159.117 252.142 159.447 251.995 159.851C251.886 160.254 251.629 160.621 251.299 160.877C250.932 161.171 250.566 161.28 250.162 161.28C249.796 161.28 249.502 161.134 249.282 160.877C249.062 160.657 249.026 160.291 249.136 159.851ZM254.305 161.83L255.075 159.117L257.092 162.05L258.228 157.944H257.642L256.872 160.657L254.855 157.688L253.719 161.83H254.305ZM261.711 161.83H262.371L261.675 157.688L258.595 161.83H259.218L259.915 160.877H261.565L261.711 161.83ZM260.318 160.327L261.308 159.007L261.528 160.327H260.318ZM264.864 157.944L263.764 161.83H265.488L265.634 161.28H264.498L265.414 157.944H264.864ZM272.71 157.944H270.584L269.484 161.83H271.647L271.794 161.28H270.254L270.62 159.997H272.124L272.27 159.447H270.767L271.024 158.531H272.564L272.71 157.944ZM274.397 157.944L273.297 161.83H275.02L275.167 161.28H274.03L274.983 157.944H274.397ZM279.75 157.944H277.623L276.523 161.83H278.65L278.796 161.28H277.256L277.623 159.997H279.126L279.273 159.447H277.77L278.026 158.531H279.566L279.75 157.944ZM284.259 158.127C283.966 157.944 283.672 157.834 283.343 157.834C282.719 157.834 282.133 158.054 281.583 158.531C281.143 158.934 280.849 159.374 280.703 159.851C280.556 160.401 280.629 160.877 280.886 161.28C281.179 161.684 281.583 161.867 282.133 161.867C282.499 161.867 282.866 161.757 283.269 161.574L283.489 160.877C283.379 160.951 283.269 161.024 283.159 161.097C283.049 161.171 282.976 161.207 282.866 161.244C282.683 161.317 282.499 161.354 282.316 161.354C281.913 161.354 281.619 161.207 281.436 160.951C281.253 160.657 281.216 160.327 281.326 159.924C281.436 159.521 281.656 159.154 282.023 158.897C282.389 158.604 282.756 158.457 283.159 158.457C283.526 158.457 283.819 158.604 284.076 158.897L284.259 158.127ZM287.779 158.494L287.925 157.944H285.579L285.432 158.494H286.312L285.396 161.83H285.982L286.899 158.494H287.779ZM290.089 160.144C290.345 160.107 290.602 159.961 290.822 159.777C291.042 159.594 291.188 159.337 291.262 159.081C291.372 158.714 291.298 158.457 291.115 158.237C290.932 158.054 290.602 157.944 290.089 157.944H289.392L288.292 161.83H288.879L289.319 160.254H289.429L290.089 161.83H290.822L290.089 160.144ZM289.832 158.494H290.052C290.602 158.494 290.822 158.677 290.675 159.081C290.565 159.521 290.235 159.704 289.649 159.704H289.465L289.832 158.494ZM292.582 159.851C292.398 160.474 292.472 160.987 292.802 161.354C293.095 161.72 293.498 161.867 294.011 161.867C294.561 161.867 295.111 161.684 295.625 161.28C296.138 160.877 296.468 160.437 296.615 159.851C296.761 159.301 296.725 158.824 296.431 158.421C296.138 158.017 295.735 157.834 295.185 157.834C294.635 157.834 294.085 158.017 293.572 158.421C293.095 158.824 292.765 159.301 292.582 159.851ZM293.168 159.851C293.278 159.447 293.535 159.117 293.865 158.824C294.231 158.531 294.598 158.384 295.001 158.384C295.405 158.384 295.698 158.531 295.918 158.824C296.101 159.117 296.138 159.447 296.028 159.851C295.918 160.254 295.661 160.621 295.331 160.877C294.965 161.171 294.598 161.28 294.195 161.28C293.828 161.28 293.535 161.134 293.315 160.877C293.095 160.657 293.058 160.291 293.168 159.851ZM298.338 161.83L299.108 159.117L301.124 162.05L302.261 157.944H301.674L300.904 160.657L298.888 157.688L297.714 161.83H298.338ZM304.131 157.944L303.031 161.83H303.617L304.717 157.944H304.131ZM309.373 158.127C309.117 157.944 308.787 157.834 308.42 157.834C307.797 157.834 307.21 158.054 306.66 158.531C306.22 158.934 305.927 159.374 305.817 159.851C305.67 160.401 305.744 160.877 306 161.28C306.294 161.684 306.697 161.867 307.247 161.867C307.614 161.867 307.98 161.757 308.383 161.574L308.603 160.877C308.493 160.951 308.383 161.024 308.273 161.097C308.163 161.171 308.09 161.207 307.98 161.244C307.834 161.317 307.65 161.354 307.43 161.354C307.027 161.354 306.734 161.207 306.55 160.951C306.367 160.657 306.33 160.327 306.44 159.924C306.55 159.521 306.807 159.154 307.137 158.897C307.504 158.604 307.87 158.457 308.273 158.457C308.64 158.457 308.933 158.604 309.19 158.897L309.373 158.127ZM315.423 158.494L315.569 157.944H313.223L313.076 158.494H313.956L313.04 161.83H313.626L314.543 158.494H315.423ZM316.156 159.851C315.973 160.474 316.046 160.987 316.376 161.354C316.669 161.72 317.073 161.867 317.586 161.867C318.136 161.867 318.686 161.684 319.199 161.28C319.712 160.877 320.042 160.437 320.189 159.851C320.336 159.301 320.262 158.824 320.006 158.421C319.712 158.017 319.309 157.834 318.759 157.834C318.209 157.834 317.659 158.017 317.146 158.421C316.669 158.824 316.339 159.301 316.156 159.851ZM316.743 159.851C316.853 159.447 317.109 159.117 317.439 158.824C317.806 158.531 318.173 158.384 318.576 158.384C318.979 158.384 319.309 158.531 319.492 158.824C319.676 159.117 319.712 159.447 319.602 159.851C319.492 160.254 319.236 160.621 318.906 160.877C318.539 161.171 318.173 161.28 317.769 161.28C317.403 161.28 317.109 161.134 316.889 160.877C316.669 160.657 316.633 160.291 316.743 159.851ZM322.425 157.944L321.326 161.83H323.049L323.195 161.28H322.059L322.975 157.944H322.425ZM325.615 157.944L324.552 161.83H326.275L326.422 161.28H325.285L326.202 157.944H325.615ZM334.158 158.127C333.864 157.944 333.571 157.834 333.241 157.834C332.618 157.834 332.031 158.054 331.481 158.531C331.041 158.934 330.748 159.374 330.638 159.851C330.491 160.401 330.565 160.877 330.821 161.28C331.115 161.684 331.518 161.867 332.068 161.867C332.435 161.867 332.801 161.757 333.204 161.574L333.388 160.877C333.278 160.951 333.168 161.024 333.058 161.097C332.948 161.171 332.874 161.207 332.764 161.244C332.618 161.317 332.435 161.354 332.215 161.354C331.811 161.354 331.518 161.207 331.335 160.951C331.151 160.657 331.078 160.327 331.225 159.924C331.335 159.521 331.591 159.154 331.921 158.897C332.288 158.604 332.654 158.457 333.058 158.457C333.424 158.457 333.718 158.604 333.974 158.897L334.158 158.127ZM335.111 159.851C334.928 160.474 335.001 160.987 335.331 161.354C335.624 161.72 336.027 161.867 336.541 161.867C337.127 161.867 337.641 161.684 338.154 161.28C338.667 160.877 338.997 160.437 339.144 159.851C339.291 159.301 339.254 158.824 338.961 158.421C338.667 158.017 338.264 157.834 337.714 157.834C337.164 157.834 336.614 158.017 336.101 158.421C335.624 158.824 335.294 159.301 335.111 159.851ZM335.734 159.851C335.844 159.447 336.101 159.117 336.431 158.824C336.797 158.531 337.164 158.384 337.567 158.384C337.971 158.384 338.264 158.531 338.484 158.824C338.667 159.117 338.741 159.447 338.594 159.851C338.484 160.254 338.227 160.621 337.861 160.877C337.494 161.171 337.127 161.28 336.724 161.28C336.357 161.28 336.064 161.134 335.844 160.877C335.661 160.657 335.588 160.291 335.734 159.851ZM341.38 157.944L340.28 161.83H342.004L342.15 161.28H341.014L341.93 157.944H341.38ZM344.607 157.944L343.507 161.83H345.23L345.377 161.28H344.24L345.157 157.944H344.607ZM349.96 157.944H347.833L346.733 161.83H348.896L349.043 161.28H347.466L347.833 159.997H349.336L349.483 159.447H347.98L348.236 158.531H349.776L349.96 157.944ZM354.432 158.127C354.139 157.944 353.846 157.834 353.516 157.834C352.893 157.834 352.306 158.054 351.756 158.531C351.316 158.934 351.023 159.374 350.913 159.851C350.766 160.401 350.839 160.877 351.096 161.28C351.389 161.684 351.793 161.867 352.343 161.867C352.709 161.867 353.076 161.757 353.479 161.574L353.699 160.877C353.589 160.951 353.479 161.024 353.369 161.097C353.259 161.171 353.186 161.207 353.076 161.244C352.893 161.317 352.709 161.354 352.526 161.354C352.123 161.354 351.829 161.207 351.646 160.951C351.463 160.657 351.389 160.327 351.536 159.924C351.646 159.521 351.903 159.154 352.233 158.897C352.599 158.604 352.966 158.457 353.369 158.457C353.736 158.457 354.029 158.604 354.286 158.897L354.432 158.127ZM357.989 158.494L358.135 157.944H355.789L355.642 158.494H356.522L355.606 161.83H356.192L357.109 158.494H357.989ZM359.565 157.944L358.465 161.83H359.052L360.152 157.944H359.565ZM361.288 159.851C361.105 160.474 361.178 160.987 361.508 161.354C361.802 161.72 362.205 161.867 362.718 161.867C363.268 161.867 363.818 161.684 364.331 161.28C364.845 160.877 365.175 160.437 365.321 159.851C365.468 159.301 365.395 158.824 365.138 158.421C364.845 158.017 364.441 157.834 363.892 157.834C363.342 157.834 362.792 158.017 362.278 158.421C361.765 158.824 361.435 159.301 361.288 159.851ZM361.875 159.851C361.985 159.447 362.205 159.117 362.572 158.824C362.938 158.531 363.305 158.384 363.708 158.384C364.111 158.384 364.405 158.531 364.625 158.824C364.808 159.117 364.881 159.447 364.735 159.851C364.625 160.254 364.368 160.621 364.002 160.877C363.635 161.171 363.268 161.28 362.865 161.28C362.498 161.28 362.205 161.134 361.985 160.877C361.802 160.657 361.765 160.291 361.875 159.851ZM367.045 161.83L367.814 159.117L369.831 162.05L371.004 157.944H370.418L369.648 160.657L367.631 157.688L366.458 161.83H367.045Z" fill="#263238"/>
</svg>
