<?xml version="1.0" encoding="utf-8"?>
<!-- Generator: Adobe Illustrator 24.3.0, SVG Export Plug-In . SVG Version: 6.00 Build 0)  -->
<svg version="1.1" id="Layer_1" xmlns="http://www.w3.org/2000/svg" xmlns:xlink="http://www.w3.org/1999/xlink" x="0px" y="0px"
	 viewBox="0 0 500 500" style="enable-background:new 0 0 500 500;" xml:space="preserve">
<style type="text/css">
	.st0{opacity:0.5;}
	.st1{fill:#FFFFFF;}
	.st2{fill:#5BA9C1;}
	.st3{fill:#7CCEE4;}
	.st4{fill:#EBB0A3;}
	.st5{fill:#E79986;}
	.st6{fill:none;stroke:#FFFFFF;stroke-width:0.6267;stroke-miterlimit:10;}
	.st7{fill:#1D304A;}
	.st8{fill:#152736;}
	.st9{fill:none;stroke:#00112B;stroke-width:0.6267;stroke-miterlimit:10;}
	.st10{fill:#D15E85;}
	.st11{fill:#9B375E;}
	.st12{fill:#00112B;}
	.st13{fill:#E27C65;}
	.st14{opacity:0.55;}
	.st15{fill:#1E384D;}
	.st16{fill:none;stroke:#FFFFFF;stroke-width:0.5328;stroke-miterlimit:10;}
	.st17{fill:#EBADA3;}
	.st18{fill:none;stroke:#FFFFFF;stroke-width:0.5005;stroke-miterlimit:10;}
	.st19{opacity:0.21;enable-background:new    ;}
	.st20{fill:#6FC6DE;}
	.st21{fill:#F1F1F1;stroke:#F1F1F1;stroke-width:6.394900e-02;stroke-miterlimit:10;}
	.st22{fill:none;stroke:#A2E2E6;stroke-width:0.9647;stroke-linecap:round;stroke-linejoin:round;stroke-miterlimit:10;}
	.st23{fill:#50BFDE;}
	.st24{fill:none;stroke:#FFFFFF;stroke-miterlimit:10;}
</style>
<g id="OBJECTS">
	<g class="st0">
		<g>
			<circle class="st1" cx="249.2" cy="217" r="155.6"/>
			<ellipse class="st1" cx="386.2" cy="360.6" rx="38.6" ry="38.6"/>
			<circle class="st1" cx="89.6" cy="361.9" r="21.3"/>
			
				<ellipse transform="matrix(0.973 -0.2307 0.2307 0.973 -12.7505 93.3489)" class="st1" cx="392.8" cy="101.2" rx="9.3" ry="9.3"/>
			<path class="st1" d="M269.1,45.4c0-2.9-2.4-5.3-5.3-5.3s-5.3,2.4-5.3,5.3s2.4,5.3,5.3,5.3C266.8,50.7,269.1,48.3,269.1,45.4z"/>
			<circle class="st1" cx="241.2" cy="42.7" r="8"/>
		</g>
	</g>
	<g>
		<g>
			<g>
				
					<rect x="244.9" y="55.5" transform="matrix(0.7655 -0.6434 0.6434 0.7655 12.2762 182.5303)" class="st2" width="23.4" height="37.8"/>
				<path class="st3" d="M271.3,83.4l-8.4,7.1c-1.2-1.4-3.3-1.6-4.7-0.4l-16.7-19.9c1.4-1.2,1.6-3.3,0.4-4.7l8.4-7.1
					c1.2,1.4,3.3,1.6,4.7,0.4l16.7,19.9C270.2,79.9,270.1,82,271.3,83.4z"/>
				<path class="st2" d="M259.9,71.9c-1.4-1.7-4-1.9-5.7-0.5s-1.9,4-0.5,5.7s4,1.9,5.7,0.5C261.1,76.2,261.3,73.6,259.9,71.9z"/>
			</g>
			<g>
				
					<rect x="258" y="50.1" transform="matrix(0.9999 -1.220203e-02 1.220203e-02 0.9999 -0.8218 3.2959)" class="st2" width="23.4" height="37.8"/>
				<path class="st3" d="M275.3,85.3l-11,0.1c0-1.9-1.5-3.3-3.4-3.3l-0.3-26c1.9,0,3.3-1.5,3.3-3.4l11-0.1c0,1.9,1.5,3.3,3.4,3.3
					l0.3,26C276.8,81.9,275.3,83.4,275.3,85.3z"/>
				<path class="st2" d="M273.8,69.2c0-2.3-1.9-4.1-4.1-4c-2.3,0-4.1,1.9-4,4.1c0,2.3,1.9,4.1,4.1,4
					C272.1,73.3,273.9,71.4,273.8,69.2z"/>
			</g>
			<g>
				
					<rect x="252" y="55.4" transform="matrix(0.8785 -0.4778 0.4778 0.8785 -3.4501 135.0245)" class="st2" width="23.4" height="37.8"/>
				<path class="st3" d="M276.3,86l-9.6,5.2c-0.9-1.6-2.9-2.2-4.6-1.3l-12.4-22.8c1.6-0.9,2.2-2.9,1.3-4.6l9.6-5.2
					c0.9,1.6,2.9,2.2,4.6,1.3l12.4,22.8C276.1,82.4,275.4,84.4,276.3,86z"/>
				<path class="st2" d="M267.5,72.5c-1.1-2-3.6-2.7-5.5-1.6c-2,1.1-2.7,3.6-1.6,5.5c1.1,2,3.6,2.7,5.5,1.6S268.6,74.5,267.5,72.5z"
					/>
			</g>
		</g>
		<g>
			<g>
				<g>
					<polygon class="st4" points="315.7,429.4 318.1,424.4 333,425 333.3,429.4 326.3,441.5 313.8,431.8 					"/>
					<path class="st5" d="M324.7,424.9l0.6,11.4c0,0,3.9-2.2,8.4-6.2l-0.6-6.5L324.7,424.9z"/>
					<path class="st3" d="M314.8,429.2c0,0,4.4-0.1,9.4,3.8c3,2.3,7.6-2.4,9-3.7c0.3-0.2,0.7,0,0.7,0.4l1.8,16h-44.1
						c-0.5,0-0.9-0.5-0.9-1.2v-3.4c0-0.5,0.3-1,0.6-1.1L314.8,429.2z"/>
					<line class="st6" x1="312.3" y1="430" x2="319.4" y2="434.1"/>
					<line class="st6" x1="309.2" y1="431.6" x2="316.3" y2="435.7"/>
				</g>
				<g>
					<polygon class="st4" points="387.6,429.4 390.1,424.4 403.7,422.4 405.2,429.4 398.3,441.5 385.7,431.8 					"/>
					<path class="st5" d="M398.1,424.6l-1.2,10.8c0,0,3.9-2.2,8.4-6.2l-1.2-5.5L398.1,424.6z"/>
					<path class="st3" d="M386.7,429.2c0,0,4.4-0.1,9.4,3.8c3,2.3,7.6-2.4,9-3.7c0.3-0.2,0.7,0,0.7,0.4l1.8,16h-44.1
						c-0.5,0-0.9-0.5-0.9-1.2v-3.4c0-0.5,0.3-1,0.6-1.1L386.7,429.2z"/>
					<line class="st6" x1="383.2" y1="430.4" x2="390.3" y2="434.5"/>
					<line class="st6" x1="380.1" y1="431.9" x2="387.2" y2="436"/>
				</g>
				<path class="st7" d="M336.7,72.7c0.6,0.8,1.4,1.7,2.3,2.1c2.1,0.8,5.4,3.7,7.7,1.9c2.3-1.8,6.6,1.1,7.3,1.6l4.5,12.2l-0.4,0.2
					l0.2,0.3l0,0l0,0l0.2,0.3l5.2-2.8v5.8c3.8-12.6,4.3-23.1,2.5-28.6c-4.8-7.8-13.1-3.7-15.8-5.7c-5.3-4-16.3-6-16,2
					c0.3,6.3-3.5,2.2-0.4,7.1C334.5,70.6,335.4,71.9,336.7,72.7z M360.7,89.3l-1.1,0.6c0.8-0.8,1.7-1.2,2.3-1.4L360.7,89.3z"/>
				<g>
					<path class="st8" d="M318.4,236.1c0,0-5.7,67.9-6.2,86.7s3.2,102.4,3.2,102.4l19,0.4c0,0,21.1-140.3,44.1-185.6L318.4,236.1z"
						/>
					<path class="st6" d="M347,239.7c0,0-16.2,78.5-16.2,90.5s-2.4,94.8-2.4,94.8"/>
					<line class="st6" x1="335.7" y1="416.4" x2="315.2" y2="416.4"/>
				</g>
				<g>
					<path class="st7" d="M322.4,236.2c0,0,9.1,56.5,22.4,96.6c10.8,32.4,39.1,93.9,39.1,93.9l22.1-0.2l-23-92.7
						c-1.2-4.8-2-9.8-2.3-14.7c-1.2-18.8,2.7-56.8,4.3-81.2L322.4,236.2z"/>
					<g>
						<path class="st6" d="M364.4,237.1c0,0-6.2,73.4-0.6,84.8c5.6,11.4,32.8,104.3,32.8,104.3"/>
						<line class="st9" x1="403.3" y1="418" x2="380.4" y2="418"/>
						<line class="st6" x1="342.1" y1="236.5" x2="361.9" y2="262.4"/>
					</g>
				</g>
				<g>
					<path class="st4" d="M350.1,129.2c0,0,0.8-6.1-4.9-7c-5.6-0.9-20.8-4.9-59.4,8.3c0,0-6.1-43.8-6.8-46.7
						c-1.6-6.5-2.9-4.3-3.3-1.5c-0.3,1.9-1.8,6.1-2.3,7.6c-1.6,0.6-7.5,5.1-7.1,3.8c0,0-2.1,56.7,4.2,62
						C276.6,161.2,356.3,147.6,350.1,129.2z"/>
					<path class="st10" d="M301.3,125c0,0,58.5-14.6,57.8,2.4c-0.6,17-85.8,48.8-92.9,39.3c-11.3-15.1-0.6-65.6-0.6-65.6l15.7-7.3
						l4.1,35L301.3,125z"/>
					<path class="st11" d="M305.4,158.6c3.4,4.1,36.5-4.5,40.2-10c0,0,0.6-18.6-0.8-18.9C330.3,125.7,305.4,158.6,305.4,158.6z"/>
				</g>
				<g>
					<path class="st10" d="M369.7,118c0,0,26.3,5.2,28.2,29.8c1.9,24.6-10.1,99.1-10.1,99.1l-74.4,1.3l4.1-96.8
						c0.3-6.3,2.2-12.3,5.6-17.6c3.1-4.8,6.7-10.3,8.8-10.6l31.1-8.4L369.7,118z"/>
					<path class="st11" d="M375.8,127.3c18-7.2,21.4,9.3,22.4,21.5C400,173.4,387.7,249,387.7,249l-73.9-0.3"/>
				</g>
				<g>
					<path class="st4" d="M360.3,95.8l3.1,19.1c0,0-13.4,13.8-18.6,12c-1.9-0.6-2.5-7.4-2.5-7.4l1.3-13.8l13.9-12.6
						c0,0,2.1,1.5,2.4,2.1C360.2,95.7,360.3,95.8,360.3,95.8z"/>
					<path class="st12" d="M357.5,93.1l-13.9,12.6l-1,8.2c0,0,12.6-3.5,13-13.9"/>
				</g>
				<g>
					<path class="st4" d="M362,230.1c6.1,1,10-4.5,12.6-10l16.7-40.9L361.9,161c-0.2,0.3-12.1,25.4-14.2,37.6c-0.7,4-2.6,3.9-6,2.3
						l-26.4-12.7l-10.7,1l-20.8,2c0,0,0.1,2.1,2.8,2.9c2.8,0.8,26.9,10.4,26.9,10.4L362,230.1z"/>
					<path class="st4" d="M302.7,184.2c0,0-3.7-2.3-1.1,1.7c1.9,2.9,3,3.3,3,3.3l11.2-0.7L302.7,184.2z"/>
					<path class="st10" d="M367.1,139.3c0,0,5.7-22.1,21.6-14.5c15.9,7.6,6.6,51.2,1.6,62.4c-4.1,9.2-8.3,27.1-15.3,39.3
						c-4.9,8.5-21.2,9-29,3l-34.1-26.3l6-14.5l27.1,8.5L367.1,139.3z"/>
				</g>
				<g>
					<path class="st4" d="M358.9,88.4c0.2,0.4,0.7,0.6,1,0.2c1.1-1.1,3.4-2.6,4.2,1.8c1.1,6-5.2,5-5.7,5.8c-1,1.6-4.3,7.1-9.1,9.3
						c-2.9,1.3-7.3,1.5-10.5-1.6s-4.7-1-3.3-34c0,0,1.5,2.8,3.6,3.6c2.1,0.7,4.2-4.5,9.8,0.1c1.7,1.4,6.3-3.3,6.2,1.8
						C355.1,78.7,357.9,85.8,358.9,88.4z"/>
					<g>
						<path class="st1" d="M335.6,93.7c0,0,1.9,1,6.7,0.5c0,0-2.6,3.5-4.4,2.8C336,96.3,335.6,93.7,335.6,93.7z"/>
						<path class="st13" d="M363.2,90l-3.3,2.5C359.9,92.5,361.1,86.5,363.2,90z"/>
						<path class="st12" d="M339.5,86.7c0,0.7,0.3,1.3,0.6,1.3c0.4,0,0.6-0.6,0.6-1.3c0-0.7-0.3-1.3-0.6-1.3
							C339.8,85.4,339.5,85.9,339.5,86.7z"/>
						<path class="st12" d="M335.4,86c0,0.7,0.3,1.3,0.6,1.3c0.4,0,0.6-0.6,0.6-1.3c0-0.7-0.3-1.3-0.6-1.3
							C335.7,84.7,335.4,85.3,335.4,86z"/>
						<path class="st12" d="M344.9,81c0.9,0.7-0.5-2.3-1.8-2.7c-1.3-0.3-2.6,0.3-2.8,1.5C340.2,79.8,342.6,79.5,344.9,81z"/>
						<path class="st12" d="M335.2,80.7c1.4-0.2,2.3,0.1,2.3,0.1c-0.2-1.1-1.2-1.8-2.4-1.9"/>
						<path class="st13" d="M337.3,86l-1.9,5.5c0,0.1,0,0.2,0.1,0.2l2.3,0.2c0.1,0,0.1-0.1,0.1-0.2l-0.4-5.7
							C337.6,85.9,337.4,85.8,337.3,86z"/>
					</g>
				</g>
				<g class="st14">
					<g>
						<path class="st1" d="M324.5,204.7c0.6-0.9,1.4-1.6,2.3-2.2c0.9-0.6,1.8-1.1,2.8-1.4c-0.6,0.9-1.4,1.6-2.3,2.2
							C326.5,204,325.6,204.5,324.5,204.7z"/>
					</g>
					<g>
						<path class="st1" d="M341.4,208.3c0.9,0.5,1.6,1.2,2.2,1.9s1.1,1.5,1.4,2.5c-0.9-0.5-1.6-1.2-2.2-1.9
							C342.2,210.1,341.7,209.3,341.4,208.3z"/>
					</g>
					<g>
						<path class="st1" d="M356,206.1c0.2-0.8,0.7-1.4,1.2-2c0.5-0.5,1.1-1,1.9-1.3c-0.2,0.8-0.7,1.4-1.2,2
							C357.4,205.3,356.8,205.8,356,206.1z"/>
					</g>
					<g>
						<path class="st1" d="M365.6,218.9c0.8,0.6,1.4,1.2,1.9,1.9s1,1.4,1.4,2.3c-0.9-0.4-1.6-1-2.2-1.7
							C366.2,220.7,365.7,219.9,365.6,218.9z"/>
					</g>
					<g>
						<path class="st1" d="M362.9,188.6c1,0.5,1.8,1.2,2.5,2s1.3,1.6,1.7,2.7c-1-0.5-1.8-1.2-2.5-2
							C364,190.4,363.3,189.6,362.9,188.6z"/>
					</g>
					<g>
						<path class="st1" d="M372.2,178.6c0.3-0.9,0.9-1.6,1.5-2.2c0.6-0.6,1.3-1.2,2.2-1.5c-0.3,0.9-0.9,1.6-1.5,2.2
							C373.8,177.7,373.1,178.2,372.2,178.6z"/>
					</g>
					<g>
						<path class="st1" d="M376,207.9c0.3-0.9,0.7-1.5,1.3-2.1c0.6-0.6,1.2-1.1,2-1.5c-0.3,0.9-0.7,1.5-1.3,2.1
							C377.4,207,376.8,207.5,376,207.9z"/>
					</g>
					<g>
						<path class="st1" d="M382.2,187.2c0.5-0.1,0.8,0.1,1.1,0.3c0.2,0.2,0.5,0.5,0.5,1c-0.5,0.1-0.8-0.1-1.1-0.3
							C382.4,188.1,382.2,187.8,382.2,187.2z"/>
					</g>
					<g>
						<path class="st1" d="M360.7,163.9c0.8,0.3,1.3,0.8,1.8,1.3c0.4,0.5,0.8,1.1,1,1.9c-0.8-0.3-1.3-0.8-1.8-1.3
							C361.3,165.3,360.9,164.7,360.7,163.9z"/>
					</g>
					<g>
						<path class="st1" d="M370,154.7c0-0.9,0.5-1.6,1-2.2c0.5-0.6,1.2-1.1,2.1-1.2c-0.4,0.8-0.9,1.3-1.3,1.9
							C371.2,153.7,370.8,154.2,370,154.7z"/>
					</g>
					<g>
						<path class="st1" d="M382,160.9c0.8,0.2,1.4,0.7,1.9,1.3s0.9,1.2,1,2.1c-0.7-0.4-1.2-0.9-1.7-1.4
							C382.7,162.2,382.2,161.7,382,160.9z"/>
					</g>
					<g>
						<path class="st1" d="M392.4,174.4c0.1-0.9,0.4-1.6,0.8-2.3s0.9-1.3,1.7-1.8c-0.1,0.9-0.4,1.6-0.8,2.3
							C393.6,173.2,393.1,173.9,392.4,174.4z"/>
					</g>
					<g>
						<path class="st1" d="M378.2,136.3c0.8,0.1,1.3,0.5,1.9,1c0.5,0.5,1,1,1.2,1.7c-0.8-0.1-1.4-0.5-1.9-1
							C378.9,137.5,378.5,137,378.2,136.3z"/>
					</g>
					<g>
						<path class="st1" d="M389.5,152.2c0.2-0.9,0.6-1.7,1.1-2.4s1.1-1.3,2-1.8c-0.2,0.9-0.6,1.7-1.1,2.4
							C391,151.1,390.4,151.8,389.5,152.2z"/>
					</g>
					<g>
						<path class="st1" d="M324.1,164.7c0.9,0.4,1.6,1.1,2.2,1.8s1.1,1.5,1.4,2.4c-0.9-0.4-1.6-1.1-2.2-1.8S324.4,165.6,324.1,164.7
							z"/>
					</g>
					<g>
						<path class="st1" d="M332.5,158.1c0.1-1.1,0.6-2,1.2-2.8s1.3-1.6,2.3-2c-0.4,1-0.9,1.8-1.5,2.6
							C333.9,156.6,333.3,157.4,332.5,158.1z"/>
					</g>
					<g>
						<path class="st1" d="M333.9,182.6c0.3-1.1,0.9-1.9,1.5-2.7s1.3-1.6,2.3-2.1c-0.3,1.1-0.9,1.9-1.5,2.7
							C335.5,181.3,334.8,182,333.9,182.6z"/>
					</g>
					<g>
						<path class="st1" d="M344.3,163.1c1,0.5,1.8,1.1,2.6,1.9c0.7,0.7,1.4,1.6,1.9,2.6c-1-0.5-1.8-1.1-2.6-1.9
							C345.4,164.9,344.7,164.1,344.3,163.1z"/>
					</g>
					<g>
						<path class="st1" d="M322.3,144c0.8,0.2,1.4,0.7,1.9,1.2s1,1.1,1.2,1.9c-0.8-0.2-1.4-0.7-1.9-1.2S322.6,144.8,322.3,144z"/>
					</g>
					<g>
						<path class="st1" d="M331.4,134.7c0.2-0.9,0.6-1.5,1-2.2c0.5-0.6,1-1.2,1.8-1.6c-0.2,0.9-0.6,1.6-1,2.2
							C332.8,133.7,332.2,134.3,331.4,134.7z"/>
					</g>
					<g>
						<path class="st1" d="M341.4,140.5c0.7,0,1.2,0.2,1.6,0.5s0.8,0.7,1.1,1.3c-0.7,0-1.2-0.2-1.6-0.5
							C342,141.4,341.6,141.1,341.4,140.5z"/>
					</g>
					<g>
						<path class="st1" d="M355.8,147.8c0.3-0.9,0.7-1.6,1.3-2.3c0.6-0.7,1.2-1.3,2-1.7c-0.2,0.9-0.7,1.6-1.3,2.3
							C357.3,146.8,356.7,147.4,355.8,147.8z"/>
					</g>
					<g>
						<path class="st1" d="M350.7,130.9c-0.1-0.5,0.1-0.9,0.3-1.2c0.2-0.3,0.5-0.5,1.1-0.6c0.1,0.5-0.1,0.9-0.3,1.2
							C351.5,130.6,351.3,130.9,350.7,130.9z"/>
					</g>
					<g>
						<path class="st1" d="M364.5,122.7c0.9,0.2,1.6,0.7,2.3,1.3c0.7,0.6,1.3,1.2,1.7,2c-0.9-0.2-1.6-0.7-2.3-1.3
							C365.5,124.2,364.9,123.6,364.5,122.7z"/>
					</g>
					<g>
						<path class="st1" d="M319.2,220.7c0.8,0.2,1.5,0.6,2.1,1c0.6,0.5,1.1,1,1.5,1.8c-0.8-0.2-1.5-0.6-2.1-1
							S319.6,221.5,319.2,220.7z"/>
					</g>
					<g>
						<path class="st1" d="M329.2,239.8c0-0.8,0.4-1.5,0.8-2.1c0.5-0.6,1-1.1,1.8-1.3c-0.2,0.8-0.6,1.3-1.1,1.9
							C330.4,238.9,329.9,239.4,329.2,239.8z"/>
					</g>
					<g>
						<path class="st1" d="M344.7,236.7c1,0.4,1.7,1,2.4,1.6c0.7,0.6,1.4,1.3,1.9,2.2c-1-0.3-1.8-0.8-2.6-1.5
							C345.8,238.4,345.1,237.6,344.7,236.7z"/>
					</g>
					<g>
						<path class="st1" d="M374.2,243.6c-0.1-0.8,0.1-1.6,0.5-2.2c0.4-0.6,0.9-1.2,1.7-1.5c-0.2,0.8-0.5,1.4-0.8,2
							C375.2,242.4,374.8,243,374.2,243.6z"/>
					</g>
					<g>
						<path class="st1" d="M272.1,155.1c1.1,0.5,2,1.2,2.8,2.1c0.8,0.9,1.5,1.8,1.9,2.9c-1-0.6-1.8-1.4-2.6-2.2
							C273.4,157,272.7,156.2,272.1,155.1z"/>
					</g>
					<g>
						<path class="st1" d="M280.1,147.8c0.2-1,0.7-1.7,1.3-2.5c0.6-0.7,1.2-1.4,2.1-1.9c-0.2,1-0.7,1.7-1.3,2.5
							C281.6,146.6,281,147.3,280.1,147.8z"/>
					</g>
					<g>
						<path class="st1" d="M268.5,134.5c0.9,0.4,1.5,0.9,2.2,1.4c0.6,0.6,1.3,1.1,1.8,1.9c-0.9-0.1-1.7-0.6-2.4-1.1
							C269.4,136.1,268.8,135.4,268.5,134.5z"/>
					</g>
					<g>
						<path class="st1" d="M276.1,124.5c-0.2-0.5-0.1-0.9,0.1-1.2c0.2-0.3,0.4-0.6,0.9-0.8c0.2,0.5,0.1,0.9-0.1,1.2
							C276.9,124.1,276.6,124.3,276.1,124.5z"/>
					</g>
					<g>
						<path class="st1" d="M268.4,110.9c0.8,0.3,1.4,0.9,1.9,1.5s0.9,1.3,1.1,2.1c-0.8-0.3-1.4-0.9-1.9-1.5
							C269.1,112.4,268.6,111.8,268.4,110.9z"/>
					</g>
					<g>
						<path class="st1" d="M291.5,151.7c1.1,0.5,1.9,1.2,2.7,2c0.8,0.8,1.5,1.6,2,2.7c-1.1-0.5-1.9-1.2-2.7-2
							C292.7,153.6,292,152.8,291.5,151.7z"/>
					</g>
					<g>
						<path class="st1" d="M300.1,140.8c0.5-1.2,1.2-2.2,1.9-3.1c0.8-0.9,1.6-1.8,2.7-2.5c-0.5,1.2-1.2,2.2-1.9,3.1
							C302,139.2,301.1,140.1,300.1,140.8z"/>
					</g>
					<g>
						<path class="st1" d="M292.4,129.5c0.4-0.1,0.7,0,0.9,0.1c0.2,0.2,0.3,0.4,0.1,0.9c-0.4,0.1-0.7,0-0.9-0.1
							C292.4,130.2,292.3,129.9,292.4,129.5z"/>
					</g>
					<g>
						<path class="st1" d="M314,128.5c0.7,0.2,1.2,0.5,1.7,1c0.4,0.4,0.8,1,1,1.7c-0.7-0.2-1.2-0.5-1.7-1
							C314.6,129.7,314.2,129.2,314,128.5z"/>
					</g>
					<g>
						<path class="st1" d="M311.1,148.5c0-0.7,0.3-1.2,0.6-1.6c0.3-0.4,0.7-0.8,1.4-1c0,0.7-0.3,1.2-0.6,1.6
							C312.1,147.9,311.7,148.3,311.1,148.5z"/>
					</g>
				</g>
			</g>
		</g>
	</g>
	<g>
		<g>
			<path class="st15" d="M177.4,117.6l-8.2-21.5c0.3-2.6-4.4-8.9-6.7-10.2c-6.3-3.6-14.5-5.5-21.2-2.7
				c-13.4,5.7-12.6,48.8-12.6,48.8"/>
			<path class="st4" d="M144,104.8c0,0.3-0.3,0.6-0.6,0.6c-1.5,0-4.8-0.3-5.3,3.5c-0.5,3.9,3.2,6,5.4,6.2c0.6,0,2.1,0.2,2.6,0.6
				c1.3,1.5,2,4.6,3,8.6c2.3,8.7-4.6,12.7-4.6,12.7s22.9,11.2,22.7,0c0,0-1.8-20.7-1.7-20.8c1.8-1.8,8.7-2.6,4.4-17.3
				c-4-13.7-14.1-12.7-16.6-12.3C150.9,87,143.5,87.4,144,104.8z"/>
			<g>
				<path class="st13" d="M139.7,110.1c0,0,2.3-4.9,5.2,1.6"/>
				<path class="st5" d="M156.7,104.8c1.9,0,3.5,1.5,3.5,3.4s-1.5,3.5-3.4,3.5s-3.5-1.5-3.5-3.4
					C153.3,106.5,154.8,104.9,156.7,104.8z"/>
				<path class="st5" d="M171,106.1c-1.6-0.3-2.8-1.6-2.8-3.3c0-1.3,0.6-2.4,1.7-3C169.9,99.8,171.3,103.6,171,106.1z"/>
				<path class="st1" d="M168.1,104.4l-5.2,2.6c0,0,2.6,1.9,3.9,0.8C168.2,106.8,168.1,104.4,168.1,104.4z"/>
				<path class="st13" d="M164.1,100.5l0.8,3.7l1.8-0.8c0.3-0.1,0.4-0.6,0.1-0.8L164.1,100.5z"/>
				<path d="M157.4,99.1c-0.5,0.6-0.2-1.6,0.6-2.1c0.7-0.5,1.7-0.4,2.1,0.2C160.1,97.3,158.5,97.6,157.4,99.1z"/>
				<path d="M167.3,95.4c0.8,0.2-0.8-1.4-1.7-1.3s-1.6,0.8-1.5,1.5C164,95.7,165.5,94.9,167.3,95.4z"/>
				<path d="M160.4,101.9c0.3,0.6,0.7,1,1,0.9s0.3-0.7,0.1-1.4c-0.3-0.6-0.7-1-1-0.9C160.2,100.7,160.2,101.3,160.4,101.9z"/>
				<path d="M165.3,99.6c0.2,0.6,0.7,1,1,0.9s0.3-0.7,0.1-1.3c-0.2-0.6-0.7-1-1-0.9C165.1,98.4,165,99,165.3,99.6z"/>
				<path d="M165.4,116.2c0,0-6.5,1.2-9.8,1C152.2,117,168.8,136,165.4,116.2z"/>
			</g>
			<path class="st15" d="M159,84.5c1.8,0.7,7.8,1.1,7.1,4.6c-0.3,1.4-3.7,3-5,2.5s-3.8-5.6-3.1-4.4c0.5,0.8,1.3,3.1,0.8,4
				c-1.3,2.7-7.7,6.6-10.5,5.7c-0.8-0.3-0.5-3-1.3-2.9s0.1,4,0.5,4.8c1.1,2.3-3.6,6.5-4.8,5.8C137.7,101.6,139.2,76.9,159,84.5z"/>
		</g>
		<g>
			<path class="st10" d="M174.6,82.4L174.6,82.4c-0.5-1.1-1.7-1.6-2.8-1.1l-7.8,3.3l-0.8-2c-3.3-7.7-12.3-11.3-20-8l-5.6,2.4
				c-7.7,3.3-11.3,12.3-8,20l2.4,5.6l10.5-4.5l0.1,0.1l31-13.1C174.6,84.7,175.1,83.5,174.6,82.4z"/>
			<line class="st16" x1="164.1" y1="84.6" x2="152" y2="89.8"/>
		</g>
		<g>
			<path class="st17" d="M169.2,418l2.4,16.9c0,0,3.8,11.2,7.3,6.9c3.5-4.3,7-6.6,7-6.6l1.2-17.5L169.2,418z"/>
			<path class="st5" d="M178.5,418.7l0.6,22.9c0,0-11.2,1.7-7-5.8l-2.4-15.9L178.5,418.7z"/>
			<path class="st17" d="M112.8,416.7l-4,24.3c0,0-5.3-3.9-6.7-4c-2.6-0.2-6.1,1.6-6.1,1.6l1.7-21.8h15.1V416.7z"/>
			<path class="st5" d="M105.3,412.3l-3.7,27.8c0,0-3.8,2.7-5.2-1.5l0.9-25.4L105.3,412.3z"/>
		</g>
		<path class="st10" d="M111.1,445.9H88.5c0,0,1.6-11.7,13.5-12.9C114,431.9,111.1,445.9,111.1,445.9z"/>
		<path class="st10" d="M168.5,445.2l37.2,0.7c0,0-4.4-12.2-19.5-12.9l-8.4,5.8l-6.9-4.2L168.5,445.2z"/>
		<g>
			<path class="st7" d="M140.5,195.1c-6.5,11.5-9.9,19.8-13.6,34.4c-4.3,16.9-30.4,159.1-32.4,189.8c5.3,1.3,19.7,0.6,23.1,0.4
				c10.7-30.6,34.9-128.3,39.5-147.6c0.7-3,8.5-3.1,8.1-0.1c-2.6,22,0.6,114.1,3.4,146.8c2.8,1.4,18.9,0,22.2-0.4
				c3.5-37.8,19.4-177.8-8.6-224.3C169.2,192.4,153.5,194.7,140.5,195.1z"/>
			<path class="st18" d="M180.4,199.2c0,0,11.4,28.3,11.4,68.2s-5.6,150.1-5.6,150.1"/>
			<line class="st18" x1="98.9" y1="419.7" x2="146.9" y2="197.9"/>
			<path class="st19" d="M181.9,199.9L129,239.7c0,0-2.2-21.5,7.2-39.1L181.9,199.9z"/>
			<polygon class="st3" points="93.6,423.7 92.2,408.2 122.8,410 117.5,426.4 			"/>
			<polygon class="st3" points="164.1,412.6 193.8,410.4 191.6,423.7 167.2,425.5 			"/>
		</g>
		<g>
			<path class="st5" d="M255.9,190.6c-11.8-0.4-19.7-0.4-20.8-0.3l-38.1-0.8l0.1-0.1c0,0-1.9,0-3.3-0.1c-0.7,0-1.2-0.5-1.4-1.1
				c-3.7-15.4-11.1-56.1-24.3-52.8c-0.2,0,1.2,1.2,1.7,1.8c4.3,5.5,6.4,31.9,6.4,31.9c0.1,0.4,0.1,2.2,0.1,4.8
				c-4.7,26.8,0.9,28.8,0.9,28.8c0.8,0.5,1.7,0.9,2.8,1.2c0,0,0,0.1,0.1,0.1h0.1c17,5.3,66.3-6.2,66.3-6.2
				C250.4,196.6,259.3,190.7,255.9,190.6z"/>
			<path class="st20" d="M167.4,133.3c0,0,6.6-0.7,11,6.1c4.3,6.7,11.5,24,12.6,30.8l-26.6,13.6L167.4,133.3z"/>
		</g>
		<g>
			<rect x="215" y="154.4" class="st7" width="85.2" height="36.2"/>
			<rect x="215" y="154.4" class="st21" width="42.8" height="36.2"/>
			<rect x="221.2" y="141.7" class="st20" width="85.2" height="13.2"/>
			<rect x="215.9" y="128.8" class="st7" width="85.2" height="13.2"/>
			<rect x="215.9" y="128.8" class="st21" width="41.4" height="13.2"/>
			<path class="st1" d="M247.3,173.6h-23.6c-0.8,0-1.4-0.6-1.4-1.4l0,0c0-0.8,0.6-1.4,1.4-1.4h23.6c0.8,0,1.4,0.6,1.4,1.4l0,0
				C248.7,173,248.1,173.6,247.3,173.6z"/>
			<path class="st1" d="M247.3,180.8h-23.6c-0.8,0-1.4-0.6-1.4-1.4l0,0c0-0.8,0.6-1.4,1.4-1.4h23.6c0.8,0,1.4,0.6,1.4,1.4l0,0
				C248.7,180.2,248.1,180.8,247.3,180.8z"/>
			<path class="st22" d="M245.4,190.5c0.5-1.9,36.1-62.6,36.1-62.6"/>
			<path class="st22" d="M281.3,127.6c0,0-14.5-1.5-10.5-8.3C274.8,112.4,281.3,127.6,281.3,127.6z"/>
			<path class="st22" d="M281.6,127.4c0,0,11.5-1.2,8.3-6.6C286.7,115.4,281.6,127.4,281.6,127.4z"/>
		</g>
		<g>
			<path class="st20" d="M167.2,133c-0.4,0.9,15.9,24.7,17.9,33.4c2.2,9.7-2.5,31.2-2,32.6c0,0-15.2,10.7-53.5,4.7
				c0-11.3,3.1-53.2,7.1-64.3c0,0,9.4-7.1,12.6-7.3C149.2,132.1,166.7,148.2,167.2,133z"/>
			<path class="st23" d="M136.6,139.4c0.3-1,46.5,59.6,46.5,59.6s-51.5,6.1-53.5,4.7C129.5,203.7,133.9,150,136.6,139.4z"/>
		</g>
		<g>
			<path class="st4" d="M232.8,191.9c-11.8-0.4-31.2,2.6-32.3,2.6l-38.1-0.8l0.1-0.1c0,0-2,0-3.3-0.1c-0.7-0.1-1.3-0.7-1.3-1.4
				c-1.6-18.1-17.9-54.6-24.1-45.6c-4,5.7-0.7,32.8-0.7,35.4c2,9.3,5.9,18.2,9,24.3c2.5,4.9,7.7,7.7,13.1,7.1l63.2-7.1
				C222.3,205.1,236.2,192,232.8,191.9z"/>
			<path class="st20" d="M127.2,186.4c-7.4-35.1-3.2-38.3,10.5-48.4c2.5-1.9,3.1-2.3,7.4,4.4c4.3,6.7,11.2,29.9,12.3,36.6"/>
		</g>
		<g>
			<line class="st24" x1="125.8" y1="181" x2="157.1" y2="172.7"/>
			<line class="st24" x1="185" y1="166.4" x2="189.3" y2="164.4"/>
			<path class="st24" d="M145.4,133.8c1.3,1.3,11.6,11.3,19.6,8.3s4-9.6,4-8.6"/>
		</g>
		<path class="st4" d="M208.9,195.2c0,0,11.8-8.8,12.1-7.5c0.7,2.7-3.2,6.5-2.2,7.3C218.8,195,210.3,195.9,208.9,195.2z"/>
	</g>
</g>
</svg>
